<svg id="visual" viewBox="0 0 900 600" width="900" height="600" xmlns="http://www.w3.org/2000/svg" xmlns:xlink="http://www.w3.org/1999/xlink" version="1.1"><rect x="0" y="0" width="900" height="600" fill="#111"></rect><g transform="translate(974.8645003956759 510.90256198837073)"><path d="M122.3 -141.7C171 -133 231.5 -113.9 270 -70.1C308.5 -26.3 324.9 42.3 302.9 94.8C280.9 147.3 220.4 183.7 163.5 215.9C106.6 248 53.3 276 -30.3 317.7C-113.8 359.3 -227.7 414.7 -322.8 394.9C-417.9 375.2 -494.3 280.3 -449.2 198.1C-404.2 115.9 -237.8 46.4 -176.7 -31.3C-115.5 -109 -159.8 -194.9 -147.9 -215.5C-136 -236.2 -68 -191.6 -15.6 -170.1C36.8 -148.7 73.7 -150.4 122.3 -141.7" fill="#435450"></path></g></svg>