<svg id="visual" viewBox="0 0 900 600" width="900" height="600" xmlns="http://www.w3.org/2000/svg" xmlns:xlink="http://www.w3.org/1999/xlink" version="1.1"><rect x="0" y="0" width="900" height="600" fill="#111"></rect><g transform="translate(790.3357722852804 564.0292577757075)"><path d="M152.1 -266.9C203.4 -233.7 255.9 -205.8 330.7 -162.3C405.5 -118.7 502.8 -59.3 531.9 16.8C561.1 93 522.2 186 466.8 263.4C411.5 340.7 339.7 402.5 259.2 415.6C178.7 428.8 89.3 393.4 38.2 327.3C-13 261.2 -26 164.4 -82.4 137.3C-138.9 110.2 -238.7 152.8 -287.2 141.6C-335.7 130.3 -332.9 65.2 -287.3 26.3C-241.7 -12.5 -153.3 -25 -127.4 -75.4C-101.5 -125.8 -138 -214 -127.2 -270.6C-116.3 -327.2 -58.2 -352.1 -3.9 -345.3C50.3 -338.5 100.7 -300 152.1 -266.9" fill="#181818"></path></g></svg>