<svg id="visual" viewBox="0 0 900 600" width="900" height="600" xmlns="http://www.w3.org/2000/svg" xmlns:xlink="http://www.w3.org/1999/xlink" version="1.1"><rect x="0" y="0" width="900" height="600" fill="#111"></rect><g transform="translate(939.6626724380923 515.6099605455522)"><path d="M112.8 -170.4C145.3 -176.6 170.1 -144.6 213.5 -109.8C256.9 -75 319 -37.5 300.5 -10.7C282 16.2 183 32.3 169.5 118.9C156 205.5 228 362.6 214 443.8C200 525.1 100 530.5 8.8 515.2C-82.3 499.9 -164.7 463.9 -194 391.5C-223.3 319 -199.5 210.3 -235.5 139C-271.5 67.7 -367.3 33.8 -381.3 -8.1C-395.3 -50 -327.5 -100 -295.8 -178.7C-264 -257.3 -268.3 -364.7 -225 -352.2C-181.7 -339.7 -90.8 -207.3 -25.3 -163.5C40.2 -119.6 80.3 -164.1 112.8 -170.4" fill="#181818"></path></g></svg>