<svg id="visual" viewBox="0 0 900 600" width="900" height="600" xmlns="http://www.w3.org/2000/svg" xmlns:xlink="http://www.w3.org/1999/xlink" version="1.1"><rect x="0" y="0" width="900" height="600" fill="#111"></rect><g transform="translate(-20.001656602131675 572.8922264155601)"><path d="M211.3 -297.1C252.9 -260.6 251.3 -170.8 277 -90.3C302.8 -9.8 355.9 61.5 365.7 145.9C375.5 230.2 342 327.4 273.9 359.3C205.7 391.2 102.9 357.6 1.4 355.7C-100.1 353.8 -200.2 383.6 -247.5 345C-294.7 306.3 -289.1 199.2 -300.2 110.4C-311.3 21.6 -339.2 -48.8 -321.8 -105.2C-304.3 -161.5 -241.5 -203.7 -180.3 -233.8C-119.1 -264 -59.6 -282 12.6 -299.4C84.8 -316.8 169.7 -333.5 211.3 -297.1" fill="#87b2a9"></path></g></svg>